<svg width="52" height="50" viewBox="0 0 52 50" fill="none" xmlns="http://www.w3.org/2000/svg">
<path d="M16.1262 28.7906C15.5025 29.4135 15.5025 30.4239 16.1262 31.0469C16.7484 31.6706 17.7595 31.6706 18.3825 31.0469C19.0054 30.4239 19.0054 29.4136 18.3825 28.7906C17.7595 28.1668 16.7484 28.1668 16.1262 28.7906Z" fill="#2C45B4"/>
<path d="M15.702 35.9842C15.2354 36.4516 15.2354 37.2096 15.702 37.6769C16.1695 38.1444 16.9274 38.1444 17.3949 37.6769C17.8623 37.2096 17.8623 36.4516 17.3949 35.9842C16.9275 35.5167 16.1695 35.5167 15.702 35.9842Z" fill="#2C45B4"/>
<path d="M20.5524 33.9238C20.2322 34.2441 20.2322 34.7657 20.5524 35.0874C20.8743 35.4084 21.3958 35.4084 21.7169 35.0874C22.0379 34.7656 22.0379 34.2441 21.7169 33.9238C21.3958 33.602 20.8743 33.602 20.5524 33.9238Z" fill="#2C45B4"/>
<path d="M11.3946 32.9569C11.0127 33.3382 11.0127 33.9574 11.3946 34.3393C11.7766 34.7207 12.3951 34.7207 12.777 34.3393C13.1591 33.9574 13.1591 33.3381 12.777 32.9569C12.3951 32.5756 11.7767 32.5756 11.3946 32.9569Z" fill="#2C45B4"/>
<path d="M13.8005 40.0072C13.3331 40.4738 13.3331 41.2319 13.8005 41.6992C14.2672 42.1667 15.0251 42.1667 15.4934 41.6992C15.96 41.2319 15.9608 40.473 15.4934 40.0072C15.0251 39.539 14.2672 39.539 13.8005 40.0072Z" fill="#2C45B4"/>
<path d="M8.49107 37.0951C7.93592 37.6495 7.93592 38.5509 8.49107 39.1051C9.04543 39.6603 9.94601 39.6603 10.5011 39.1051C11.0554 38.5501 11.0554 37.6496 10.5011 37.0943C9.94601 36.5401 9.04622 36.5401 8.49107 37.0951Z" fill="#2C45B4"/>
<path d="M18.2025 2.6476L18.1941 2.64383C18.1949 2.64383 18.1949 2.64383 18.1957 2.64462L18.2025 2.6476Z" fill="#2C45B4"/>
<path d="M50.2793 12.9362H50.2801C50.2786 12.9346 50.2671 12.9225 50.242 12.9019C49.8623 12.5314 49.4231 12.2523 48.9548 12.0654L49.706 11.3128C50.4532 10.5663 50.8284 9.57953 50.8254 8.60356C50.8254 7.63442 50.4533 6.66142 49.7213 5.91947L49.7228 5.91877C49.7221 5.91877 49.7167 5.91262 49.7084 5.90429H49.7092C49.7068 5.9028 49.6939 5.88752 49.6672 5.86619C49.0938 5.30727 48.3855 4.96333 47.648 4.83526C47.6869 4.6172 47.7075 4.39528 47.7075 4.17257C47.7083 3.20423 47.34 2.22735 46.6064 1.48401C46.605 1.48242 46.6011 1.47786 46.5942 1.47102L46.5897 1.46645C46.5897 1.46566 46.5889 1.46566 46.5889 1.46496C46.5889 1.46496 46.5889 1.46496 46.5881 1.46496C46.5881 1.46496 46.5873 1.46496 46.5873 1.46417C46.585 1.46189 46.5842 1.4603 46.5798 1.45733C45.8347 0.716166 44.8542 0.34256 43.882 0.343254H43.8782C42.9022 0.34256 41.9185 0.720035 41.1751 1.46338L40.4346 2.20454C40.2554 1.82022 40.0107 1.45881 39.6973 1.14156C39.6973 1.14076 39.692 1.1363 39.6835 1.12707C39.6827 1.12707 39.6827 1.12549 39.682 1.12469C39.6805 1.1232 39.6729 1.11556 39.6561 1.10029V1.10098C38.9134 0.370536 37.9389 -0.000788635 36.9727 5.00465e-06C35.9968 -0.00158227 35.0138 0.374405 34.2689 1.11864C34.2689 1.11864 25.9376 9.43162 23.0218 12.3476C22.8791 12.4901 22.7495 12.619 22.6345 12.7348C22.6283 12.7104 22.6207 12.6875 22.6138 12.6624C22.5468 12.4207 22.4788 12.1355 22.4117 11.823L22.4109 11.8222C22.2051 10.8812 21.9977 9.6841 21.7003 8.46328L21.7026 8.47082L21.6981 8.45336L21.6974 8.4488C21.3977 7.23175 21.0141 5.98127 20.3903 4.8794V4.87861L20.3843 4.86492L20.3768 4.85192C20.0732 4.32187 19.7331 3.86523 19.3549 3.48617C19.0026 3.1332 18.6145 2.84798 18.1943 2.64362C17.5622 2.33479 16.8584 2.22577 16.1829 2.35543C15.511 2.48053 14.9116 2.82665 14.4352 3.30403L14.4298 3.30859C13.8099 3.9315 13.3782 4.7673 13.1296 5.741V5.74179C12.8818 6.71638 12.8148 7.84325 12.9596 9.09839V9.10375L12.9604 9.10524V9.11059C13.4515 13.3776 13.2936 17.4838 12.6348 20.8618C12.3061 22.5508 11.8525 24.0575 11.3057 25.3042V25.3058C10.7629 26.5487 10.123 27.5301 9.46649 28.1857L9.46252 28.1905L9.46173 28.1913L0.603516 37.0486L13.5549 50L21.582 41.9738C21.8962 41.6611 22.1791 41.4415 22.4642 41.2639C22.7143 41.1084 22.966 40.9863 23.2451 40.8735L23.2573 40.869L23.2459 40.8727C23.7316 40.6775 24.3157 40.5174 25.0263 40.2985C26.0961 39.9707 27.4274 39.4995 29.0417 38.5181C30.6583 37.5383 32.5639 36.0597 34.9101 33.7135L50.2749 18.3488C51.0222 17.6023 51.3981 16.6163 51.3966 15.6396C51.3972 14.6641 51.0229 13.6805 50.2793 12.9362ZM48.8931 16.9661L33.5284 32.3309C31.5565 34.3021 29.949 35.5968 28.6079 36.4791C27.6014 37.1418 26.7473 37.5725 25.9879 37.8868C24.8502 38.3588 23.9192 38.5653 22.9836 38.8865C22.5169 39.0466 22.0518 39.2386 21.5867 39.5094C21.1216 39.7809 20.6601 40.13 20.1996 40.5914L13.5549 47.2353L3.36915 37.0486L10.8448 29.5729C11.7339 28.6822 12.4789 27.4973 13.0974 26.0881C14.0216 23.9737 14.659 21.3468 14.9761 18.4089C15.2934 15.4716 15.2865 12.224 14.9022 8.88113V8.88034C14.7795 7.82589 14.8451 6.92987 15.0242 6.22373C15.2034 5.5161 15.4985 5.00291 15.8126 4.69032C15.9743 4.52951 16.1382 4.41889 16.3006 4.35024C16.5447 4.24885 16.7818 4.22822 17.0548 4.29687C17.327 4.36631 17.6411 4.53863 17.9713 4.86869C18.2068 5.1044 18.4486 5.42007 18.6797 5.82344L18.6804 5.82572C19.0472 6.46549 19.3438 7.26002 19.5848 8.10644C19.9493 9.37904 20.1917 10.7631 20.4381 11.9457C20.5616 12.5381 20.6867 13.0803 20.839 13.5508C20.9153 13.7863 20.9984 14.0045 21.1007 14.2081C21.2028 14.4102 21.3218 14.6 21.4911 14.7716C21.6008 14.8799 21.7344 14.982 21.8953 15.0538C22.015 15.1079 22.1499 15.1437 22.2864 15.1537C22.4923 15.1712 22.6936 15.1323 22.8698 15.0614C23.0475 14.992 23.2038 14.8943 23.3525 14.777L23.3906 14.7472L23.4249 14.7114C23.428 14.7083 23.4614 14.6748 23.5095 14.626C23.6575 14.4781 23.9708 14.1632 24.404 13.7301C25.8612 12.2729 28.6726 9.46525 31.1202 7.02372C32.3433 5.80221 33.4756 4.67216 34.3029 3.84707C34.7154 3.43448 35.0525 3.09828 35.2867 2.86564C35.52 2.63231 35.6496 2.50275 35.6503 2.50195C36.0171 2.13589 36.4906 1.95603 36.9718 1.95524C37.4521 1.95603 37.9272 2.13668 38.2962 2.50503C38.6607 2.8711 38.8345 3.33547 38.8322 3.80967C38.8285 4.24429 38.6721 4.67593 38.3617 5.03049L31.066 12.3254L32.0717 13.3312L39.2752 6.1276L39.2806 6.13216C39.3118 6.10022 39.3385 6.06659 39.3683 6.03454L42.5563 2.84649C42.9231 2.48053 43.3974 2.29977 43.8792 2.29829C44.3611 2.29898 44.8361 2.47894 45.2061 2.84808C45.5712 3.21325 45.752 3.68835 45.752 4.17108C45.7504 4.65381 45.5698 5.13029 45.2053 5.49477L34.2749 16.4255L35.2806 17.4305L45.5525 7.15933L45.6729 7.27986C46.0405 6.91231 46.5148 6.73245 46.9966 6.73245C47.4786 6.73315 47.9529 6.91469 48.3219 7.28145C48.6872 7.64742 48.8686 8.124 48.8702 8.60594C48.8702 9.08857 48.6902 9.56366 48.3235 9.93112L37.7237 20.5302L38.7295 21.5351L46.0962 14.1692L46.1679 14.2408C46.3462 14.0631 46.553 13.9334 46.7816 13.8473C47.1233 13.7184 47.5145 13.6933 47.8897 13.7741C48.2641 13.8543 48.6178 14.038 48.8931 14.314C49.2592 14.6809 49.4406 15.1565 49.4414 15.6393C49.4405 16.1221 49.2599 16.5978 48.8931 16.9661Z" fill="#2C45B4"/>
</svg>
