<svg width="51" height="50" viewBox="0 0 51 50" fill="none" xmlns="http://www.w3.org/2000/svg">
<path d="M26.4241 0.00460607C26.3803 0.0125722 26.3365 0.0245213 26.2966 0.0364706C25.8226 0.144014 25.4881 0.570201 25.5 1.05613V3.09546C25.496 3.4619 25.6872 3.80445 26.0059 3.99165C26.3245 4.17487 26.7149 4.17487 27.0335 3.99165C27.3521 3.80445 27.5433 3.4619 27.5393 3.09546V1.05613C27.5513 0.761388 27.4318 0.478591 27.2207 0.279437C27.0056 0.0763012 26.7149 -0.0232754 26.4241 0.00460607ZM19.0953 2.99987C18.7129 3.06758 18.4062 3.3464 18.2986 3.71682C18.1911 4.09123 18.3026 4.48953 18.5854 4.75242L20.0193 6.21818C20.4256 6.62446 21.0788 6.62446 21.4851 6.21818C21.8914 5.81191 21.8914 5.15869 21.4851 4.75242L20.0193 3.31851C19.8281 3.11538 19.5653 3.00385 19.2864 2.99987C19.2546 2.99987 19.2227 2.99987 19.1908 2.99987C19.159 2.99987 19.1271 2.99987 19.0953 2.99987ZM33.6255 2.99987C33.3944 3.03173 33.1794 3.14724 33.02 3.31851L31.5543 4.75242C31.148 5.15869 31.148 5.81191 31.5543 6.21818C31.9605 6.62446 32.6138 6.62446 33.02 6.21818L34.4539 4.75242C34.7567 4.46165 34.8483 4.01157 34.685 3.62521C34.5256 3.23885 34.1393 2.9919 33.7211 2.99987C33.6892 2.99987 33.6573 2.99987 33.6255 2.99987ZM26.5197 6.15445C24.2772 6.15445 22.441 7.99065 22.441 10.2331V13.2921H2.84436C1.30292 13.2921 0.00842285 14.5507 0.00842285 16.0962V41.0779C0.00842285 42.6234 1.30292 43.882 2.84436 43.882H7.14607C7.14607 47.2477 9.89837 50 13.2641 50C16.6297 50 19.382 47.2477 19.382 43.882H33.6573C33.6573 47.2477 36.4096 50 39.7753 50C43.141 50 45.8933 47.2477 45.8933 43.882H48.1557C49.6971 43.882 50.9916 42.6234 50.9916 41.0779V33.9403C50.9916 32.8171 50.5774 31.8054 50.195 31.0406C49.8286 30.3117 49.498 29.8457 49.4621 29.7979L49.4303 29.7342L40.2533 15.5545C40.2254 15.5107 40.1935 15.4669 40.1577 15.427C39.7594 14.953 39.3969 14.4591 38.8512 14.025C38.3056 13.5908 37.5528 13.2921 36.6845 13.2921H30.5983V10.2331C30.5983 7.99065 28.7582 6.15445 26.5197 6.15445ZM26.5197 8.19378C27.6588 8.19378 28.559 9.09395 28.559 10.2331V13.2921H24.4804V10.2331C24.4804 9.09395 25.3805 8.19378 26.5197 8.19378ZM16.0363 9.21345C15.4747 9.29311 15.0803 9.81489 15.16 10.3765C15.2397 10.9381 15.7614 11.3324 16.323 11.2528H18.3624C18.7288 11.2568 19.0714 11.0656 19.2586 10.7469C19.4418 10.4283 19.4418 10.0379 19.2586 9.71929C19.0714 9.40065 18.7288 9.20946 18.3624 9.21345H16.323C16.2912 9.21345 16.2593 9.21345 16.2274 9.21345C16.1956 9.21345 16.1637 9.21345 16.1319 9.21345C16.1 9.21345 16.0681 9.21345 16.0363 9.21345ZM34.3902 9.21345C33.8286 9.29311 33.4343 9.81489 33.5139 10.3765C33.5936 10.9381 34.1154 11.3324 34.677 11.2528H36.7163C37.0828 11.2568 37.4253 11.0656 37.6125 10.7469C37.7957 10.4283 37.7957 10.0379 37.6125 9.71929C37.4253 9.40065 37.0828 9.20946 36.7163 9.21345H34.677C34.6451 9.21345 34.6133 9.21345 34.5814 9.21345C34.5495 9.21345 34.5177 9.21345 34.4858 9.21345C34.4539 9.21345 34.4221 9.21345 34.3902 9.21345ZM2.84436 15.3314H36.6845C37.1425 15.3314 37.3058 15.435 37.5767 15.6501C37.8475 15.8652 38.1701 16.2555 38.5963 16.7653L38.9787 17.3708H32.6377C32.6058 17.3708 32.5739 17.3708 32.5421 17.3708C32.5102 17.3708 32.4783 17.3708 32.4465 17.3708C31.9605 17.4624 31.61 17.8925 31.618 18.3904V29.6067C31.618 30.1683 32.0761 30.6264 32.6377 30.6264H47.0723C47.2276 30.6304 47.379 30.5945 47.5184 30.5308L47.7414 30.8813C47.7494 30.9012 47.7614 30.9251 47.7733 30.945C47.7733 30.945 48.072 31.3513 48.3787 31.9647C48.6854 32.5781 48.9523 33.3707 48.9523 33.9403V41.0779C48.9523 41.5001 48.6018 41.8427 48.1557 41.8427H45.5428C44.7024 39.4688 42.432 37.764 39.7753 37.764C37.1186 37.764 34.8483 39.4688 34.0078 41.8427H19.0315C18.1911 39.4688 15.9208 37.764 13.2641 37.764C10.6073 37.764 8.33701 39.4688 7.49658 41.8427H2.84436C2.39826 41.8427 2.04775 41.5001 2.04775 41.0779V16.0962C2.04775 15.674 2.39826 15.3314 2.84436 15.3314ZM33.6573 19.4101H40.317L46.2438 28.5871H33.6573V19.4101ZM14.2837 21.4494V25.5281H10.2051V27.5674H14.2837V31.646H16.323V27.5674H20.4017V25.5281H16.323V21.4494H14.2837ZM13.2641 39.8034C15.5304 39.8034 17.3427 41.6157 17.3427 43.882C17.3427 46.1484 15.5304 47.9607 13.2641 47.9607C10.9977 47.9607 9.1854 46.1484 9.1854 43.882C9.1854 41.6157 10.9977 39.8034 13.2641 39.8034ZM39.7753 39.8034C42.0417 39.8034 43.854 41.6157 43.854 43.882C43.854 46.1484 42.0417 47.9607 39.7753 47.9607C37.5089 47.9607 35.6967 46.1484 35.6967 43.882C35.6967 41.6157 37.5089 39.8034 39.7753 39.8034Z" fill="#2C45B4"/>
</svg>
