<svg width="50" height="50" viewBox="0 0 50 50" fill="none" xmlns="http://www.w3.org/2000/svg">
<path d="M46.0723 26.8434L46.0834 26.8538L22.89 3.92549L22.8908 3.92705C20.2771 1.31182 16.8355 -0.00214581 13.4092 2.63055e-06C9.98262 -0.00214581 6.5418 1.31172 3.92735 3.92705C1.31162 6.54141 -0.00234062 9.98311 3.12988e-06 13.4098C-0.00234062 16.8356 1.31162 20.2772 3.92735 22.8917L27.1147 45.8148L27.1084 45.808C29.7229 48.4232 33.1637 49.7372 36.5911 49.735C40.017 49.7372 43.4579 48.4232 46.0724 45.8088C48.6884 43.1936 50.0023 39.752 50.0001 36.3253C50.0023 32.8986 48.6883 29.457 46.0723 26.8434ZM16.0687 30.3246C16.0619 30.3455 16.057 30.3649 16.05 30.3859L6.18428 20.6324L6.18506 20.634C4.1876 18.635 3.19483 16.0295 3.19326 13.4098C3.19473 10.7893 4.1875 8.18447 6.18506 6.18555C8.18408 4.18809 10.7892 3.19492 13.4093 3.19346C16.029 3.19492 18.6342 4.18809 20.6331 6.18555L20.6437 6.1961L30.8734 16.3084C28.8557 16.7317 27.0336 17.4766 25.4336 18.4354C21.9707 20.5129 19.5088 23.5177 17.8874 26.3334C17.0764 27.7438 16.4754 29.1115 16.0687 30.3246ZM43.8145 43.5502C41.8155 45.547 39.2107 46.5401 36.591 46.5416C33.9701 46.5401 31.365 45.5478 29.366 43.5495L29.3601 43.5436L18.6756 32.9809C18.7074 32.7753 18.7545 32.5336 18.8229 32.2659C19.07 31.2765 19.5678 29.9431 20.3186 28.5334C21.444 26.4147 23.1395 24.1189 25.38 22.3479C27.6105 20.5882 30.3465 19.3312 33.7376 19.1404L43.8101 29.0973L43.8145 29.101C45.8127 31.1 46.8051 33.7055 46.8066 36.3252C46.8052 38.9449 45.8128 41.5505 43.8145 43.5502Z" fill="#2C45B4"/>
<path d="M7.95668 16.5335L11.4476 8.18817C10.1373 8.18817 8.906 8.69755 7.98051 9.62333C6.06908 11.5348 6.06908 14.6459 7.95668 16.5335Z" fill="#2C45B4"/>
</svg>
