<svg width="50" height="50" viewBox="0 0 50 50" fill="none" xmlns="http://www.w3.org/2000/svg">
<path d="M10.2748 9.69743C11.1932 9.035 11.8779 8.09847 12.2306 7.02244C12.5833 5.9464 12.5858 4.78626 12.2377 3.70872C11.8896 2.63118 11.2089 1.69172 10.2934 1.02535C9.37788 0.35898 8.27467 0 7.14231 0C6.00995 0 4.90674 0.35898 3.99121 1.02535C3.07569 1.69172 2.39498 2.63118 2.04691 3.70872C1.69884 4.78626 1.70134 5.9464 2.05403 7.02244C2.40673 8.09847 3.09147 9.035 4.00985 9.69743C2.81369 10.2835 1.80534 11.1925 1.09881 12.3217C0.392267 13.4509 0.0157148 14.7553 0.0117188 16.0873V37.5058C0.0117188 37.9792 0.199768 38.4332 0.534498 38.7679C0.869228 39.1027 1.32322 39.2907 1.7966 39.2907V48.2151C1.7966 48.6885 1.98465 49.1425 2.31938 49.4772C2.65411 49.812 3.1081 50 3.58148 50C4.05486 50 4.50885 49.812 4.84358 49.4772C5.17831 49.1425 5.36636 48.6885 5.36636 48.2151V39.2907H8.93612V48.2151C8.93612 48.6885 9.12416 49.1425 9.45889 49.4772C9.79362 49.812 10.2476 50 10.721 50C11.1944 50 11.6484 49.812 11.9831 49.4772C12.3178 49.1425 12.5059 48.6885 12.5059 48.2151V39.2907C12.9793 39.2907 13.4332 39.1027 13.768 38.7679C14.1027 38.4332 14.2908 37.9792 14.2908 37.5058V16.0873C14.2851 14.7534 13.9059 13.4477 13.1961 12.3183C12.4863 11.189 11.4743 10.281 10.2748 9.69743ZM7.15124 3.59314C7.50425 3.59314 7.84934 3.69782 8.14286 3.89395C8.43638 4.09007 8.66516 4.36883 8.80025 4.69497C8.93534 5.02112 8.97069 5.38 8.90182 5.72623C8.83295 6.07246 8.66296 6.3905 8.41334 6.64012C8.16372 6.88974 7.84568 7.05973 7.49945 7.1286C7.15322 7.19747 6.79434 7.16213 6.46819 7.02703C6.14205 6.89194 5.86329 6.66317 5.66716 6.36965C5.47104 6.07612 5.36636 5.73103 5.36636 5.37802C5.36636 4.90464 5.55441 4.45065 5.88914 4.11592C6.22387 3.78119 6.67786 3.59314 7.15124 3.59314ZM7.15124 12.5175C8.09799 12.5175 9.00598 12.8936 9.67544 13.5631C10.3449 14.2326 10.721 15.1405 10.721 16.0873V26.7966H3.58148V16.0873C3.58148 15.1405 3.95758 14.2326 4.62704 13.5631C5.2965 12.8936 6.20448 12.5175 7.15124 12.5175ZM10.721 35.721H3.58148V30.3663H10.721V35.721ZM45.9724 9.69743C46.8907 9.035 47.5755 8.09847 47.9282 7.02244C48.2809 5.9464 48.2834 4.78626 47.9353 3.70872C47.5872 2.63118 46.9065 1.69172 45.991 1.02535C45.0755 0.35898 43.9723 0 42.8399 0C41.7075 0 40.6043 0.35898 39.6888 1.02535C38.7733 1.69172 38.0926 2.63118 37.7445 3.70872C37.3964 4.78626 37.3989 5.9464 37.7516 7.02244C38.1043 8.09847 38.7891 9.035 39.7074 9.69743C38.5113 10.2835 37.5029 11.1925 36.7964 12.3217C36.0899 13.4509 35.7133 14.7553 35.7093 16.0873V48.2151C35.7093 48.6885 35.8974 49.1425 36.2321 49.4772C36.5668 49.812 37.0208 50 37.4942 50H48.2035C48.6768 50 49.1308 49.812 49.4656 49.4772C49.8003 49.1425 49.9883 48.6885 49.9883 48.2151V16.0873C49.9827 14.7534 49.6035 13.4477 48.8937 12.3183C48.1839 11.189 47.1719 10.281 45.9724 9.69743ZM42.8488 3.59314C43.2018 3.59314 43.5469 3.69782 43.8405 3.89395C44.134 4.09007 44.3627 4.36883 44.4978 4.69497C44.6329 5.02112 44.6683 5.38 44.5994 5.72623C44.5305 6.07246 44.3605 6.3905 44.1109 6.64012C43.8613 6.88974 43.5433 7.05973 43.197 7.1286C42.8508 7.19747 42.4919 7.16213 42.1658 7.02703C41.8396 6.89194 41.5609 6.66317 41.3647 6.36965C41.1686 6.07612 41.0639 5.73103 41.0639 5.37802C41.0639 4.90464 41.252 4.45065 41.5867 4.11592C41.9215 3.78119 42.3754 3.59314 42.8488 3.59314ZM39.2791 16.0873C39.2791 15.1405 39.6552 14.2326 40.3246 13.5631C40.9941 12.8936 41.9021 12.5175 42.8488 12.5175C43.7956 12.5175 44.7036 12.8936 45.373 13.5631C46.0425 14.2326 46.4186 15.1405 46.4186 16.0873V28.5814H39.2791V16.0873ZM46.4186 46.4302H44.6337V37.5058C44.6337 37.0325 44.4457 36.5785 44.1109 36.2437C43.7762 35.909 43.3222 35.721 42.8488 35.721C42.3754 35.721 41.9215 35.909 41.5867 36.2437C41.252 36.5785 41.0639 37.0325 41.0639 37.5058V46.4302H39.2791V32.1512H46.4186V46.4302ZM28.1236 20.4067C29.042 19.7443 29.7267 18.8077 30.0794 17.7317C30.4321 16.6557 30.4346 15.4955 30.0865 14.418C29.7384 13.3405 29.0577 12.401 28.1422 11.7346C27.2267 11.0683 26.1235 10.7093 24.9911 10.7093C23.8587 10.7093 22.7555 11.0683 21.84 11.7346C20.9245 12.401 20.2438 13.3405 19.8957 14.418C19.5476 15.4955 19.5501 16.6557 19.9028 17.7317C20.2555 18.8077 20.9403 19.7443 21.8586 20.4067C20.6625 20.9928 19.6541 21.9018 18.9476 23.031C18.2411 24.1602 17.8645 25.4646 17.8605 26.7966V37.5058C17.8605 37.9792 18.0486 38.4332 18.3833 38.7679C18.718 39.1027 19.172 39.2907 19.6454 39.2907V48.2151C19.6454 48.6885 19.8334 49.1425 20.1682 49.4772C20.5029 49.812 20.9569 50 21.4303 50C21.9037 50 22.3576 49.812 22.6924 49.4772C23.0271 49.1425 23.2152 48.6885 23.2152 48.2151V39.2907H26.7849V48.2151C26.7849 48.6885 26.973 49.1425 27.3077 49.4772C27.6424 49.812 28.0964 50 28.5698 50C29.0432 50 29.4972 49.812 29.8319 49.4772C30.1666 49.1425 30.3547 48.6885 30.3547 48.2151V39.2907C30.828 39.2907 31.282 39.1027 31.6168 38.7679C31.9515 38.4332 32.1395 37.9792 32.1395 37.5058V26.7966C32.1339 25.4627 31.7547 24.157 31.0449 23.0276C30.3351 21.8982 29.3231 20.9903 28.1236 20.4067ZM25 14.3024C25.353 14.3024 25.6981 14.4071 25.9917 14.6032C26.2852 14.7993 26.514 15.0781 26.649 15.4043C26.7841 15.7304 26.8195 16.0893 26.7506 16.4355C26.6817 16.7817 26.5118 17.0998 26.2621 17.3494C26.0125 17.599 25.6945 17.769 25.3482 17.8379C25.002 17.9067 24.6431 17.8714 24.317 17.7363C23.9908 17.6012 23.7121 17.3724 23.516 17.0789C23.3198 16.7854 23.2152 16.4403 23.2152 16.0873C23.2152 15.6139 23.4032 15.1599 23.7379 14.8252C24.0727 14.4905 24.5266 14.3024 25 14.3024ZM25 23.2268C25.9468 23.2268 26.8548 23.6029 27.5242 24.2724C28.1937 24.9418 28.5698 25.8498 28.5698 26.7966V30.3663H21.4303V26.7966C21.4303 25.8498 21.8064 24.9418 22.4758 24.2724C23.1453 23.6029 24.0533 23.2268 25 23.2268ZM28.5698 35.721H21.4303V33.9361H28.5698V35.721Z" fill="#2C45B4"/>
</svg>
