<svg width="50" height="44" viewBox="0 0 50 44" fill="none" xmlns="http://www.w3.org/2000/svg">
<path d="M17.6291 32.5741H20.8814C20.8814 32.5741 21.334 32.4926 21.334 32.9769C21.334 33.8024 21.334 36.2789 21.334 36.2789C21.334 36.7784 21.7426 37.1869 22.2421 37.1869H27.7582C28.2576 37.1869 28.6663 36.7782 28.6663 36.2789C28.6663 36.2789 28.6663 33.8315 28.6663 33.0157C28.6663 32.6477 29.1531 32.5741 29.1531 32.5741H32.3711C32.8704 32.5741 33.2791 32.1655 33.2791 31.6661V26.1498C33.2791 25.6506 32.8705 25.2419 32.3711 25.2419C32.3711 25.2419 29.8958 25.2419 29.0706 25.2419C28.722 25.2419 28.6663 24.7925 28.6663 24.7925V21.5371C28.6663 21.0377 28.2575 20.629 27.7582 20.629H22.2421C21.7426 20.629 21.334 21.0377 21.334 21.5371V24.8215C21.334 24.8215 21.3561 25.2419 20.9347 25.2419C20.1083 25.2419 17.6292 25.2419 17.6292 25.2419C17.1297 25.2419 16.7212 25.6506 16.7212 26.1498V31.6661C16.7211 32.1656 17.1296 32.5741 17.6291 32.5741Z" fill="#2C45B4"/>
<path d="M47.4102 9.02472C47.4102 9.02472 41.0948 9.02472 38.9896 9.02472C38.5683 9.02472 38.5538 8.63896 38.5538 8.63896V1.90197C38.5538 0.853238 37.7005 0 36.6518 0H13.3479C12.2991 0 11.4459 0.853238 11.4459 1.90197C11.4459 1.90197 11.4459 6.93283 11.4459 8.60979C11.4459 9.036 10.9687 9.02461 10.9687 9.02461H2.5897C1.16171 9.02461 0 10.1863 0 11.6143V41.0415C0 42.4694 1.16171 43.6312 2.5897 43.6312H47.4102C48.8382 43.6312 49.9999 42.4694 49.9999 41.0415V11.6144C50 10.1864 48.8382 9.02472 47.4102 9.02472ZM13.7706 2.84203C13.7706 2.37712 14.1311 2.3247 14.1311 2.3247H35.745C35.745 2.3247 36.2293 2.41106 36.2293 2.85656C36.2293 4.11056 36.2293 7.40368 36.2293 8.59049C36.2293 8.86328 36.1712 9.02472 35.7257 9.02472C30.3452 9.02472 14.2039 9.02472 14.2039 9.02472C14.2039 9.02472 13.7706 9.036 13.7706 8.64861C13.7706 7.1969 13.7706 4.38765 13.7706 2.84203ZM47.6754 41.0416C47.6754 41.1852 47.554 41.3066 47.4103 41.3066H2.5897C2.44604 41.3066 2.32458 41.1854 2.32458 41.0416C2.32458 41.0416 2.32458 22.9722 2.32458 16.9492C2.32458 16.6781 2.64874 16.6423 2.64874 16.6423H47.3437C47.3437 16.6423 47.6754 16.6586 47.6754 16.9928C47.6754 23.0052 47.6754 41.0416 47.6754 41.0416ZM47.0677 14.3177C36.0223 14.3177 2.88608 14.3177 2.88608 14.3177C2.88608 14.3177 2.32458 14.3486 2.32458 13.8982C2.32458 13.3272 2.32458 11.6143 2.32458 11.6143C2.32458 11.4706 2.44592 11.3492 2.5897 11.3492H47.4102C47.5538 11.3492 47.6753 11.4705 47.6753 11.6143V13.8692C47.6753 13.8692 47.6779 14.3177 47.0677 14.3177Z" fill="#2C45B4"/>
</svg>
