<svg width="36" height="50" viewBox="0 0 36 50" fill="none" xmlns="http://www.w3.org/2000/svg">
<path d="M14.157 11.8013C14.3223 11.8013 14.4859 11.7688 14.6386 11.7055C14.7913 11.6423 14.93 11.5496 15.0469 11.4327C15.1638 11.3159 15.2565 11.1771 15.3197 11.0244C15.383 10.8718 15.4155 10.7081 15.4155 10.5428C15.4155 10.3776 15.383 10.2139 15.3197 10.0612C15.2565 9.90855 15.1638 9.76982 15.0469 9.65295C14.93 9.53609 14.7913 9.44339 14.6386 9.38015C14.4859 9.3169 14.3223 9.28435 14.157 9.28435C13.9891 9.28011 13.822 9.30953 13.6656 9.37087C13.5092 9.43221 13.3667 9.52423 13.2464 9.64151C13.1261 9.75879 13.0305 9.89896 12.9653 10.0538C12.9 10.2086 12.8664 10.3748 12.8664 10.5428C12.8664 10.7108 12.9 10.8771 12.9653 11.0319C13.0305 11.1867 13.1261 11.3269 13.2464 11.4442C13.3667 11.5615 13.5092 11.6535 13.6656 11.7148C13.822 11.7762 13.9891 11.8056 14.157 11.8013ZM16.2317 16.3561C15.3774 16.3561 14.9151 15.4883 14.9111 15.4786C14.8646 15.3895 14.801 15.3104 14.7239 15.2458C14.6468 15.1812 14.5578 15.1325 14.4619 15.1023C14.3659 15.0722 14.265 15.0612 14.1649 15.0701C14.0647 15.079 13.9673 15.1075 13.8782 15.1541C13.6988 15.2475 13.5636 15.4078 13.5018 15.6003C13.4399 15.7928 13.4566 16.0019 13.548 16.1822C13.5817 16.2487 14.4287 17.8906 16.2317 17.8906C16.9384 17.8906 17.5258 17.74 17.9978 17.4539C18.4481 17.764 19.0307 17.9331 19.7447 17.9331C21.3954 17.9331 22.1743 16.2159 22.208 16.1421C22.2895 15.9571 22.2944 15.7473 22.2215 15.5587C22.1487 15.37 22.0041 15.2179 21.8193 15.1357C21.7275 15.0936 21.6282 15.0701 21.5272 15.0668C21.4262 15.0635 21.3256 15.0803 21.2312 15.1162C21.1367 15.1522 21.0504 15.2065 20.9772 15.2762C20.904 15.3459 20.8454 15.4294 20.8049 15.5219C20.8033 15.5283 20.393 16.4002 19.7439 16.4002C19.1701 16.4002 18.9161 16.2543 18.8087 16.1614V14.8656C19.0659 14.8156 19.2978 14.678 19.465 14.4762C19.6321 14.2744 19.7242 14.021 19.7255 13.759C19.7255 13.1211 19.2078 12.5786 18.5988 12.5786L17.5314 12.5874C16.8863 12.5874 16.3615 13.1155 16.3615 13.759C16.3615 14.3135 16.7509 14.7831 17.2758 14.9025V16.1093C17.1388 16.2095 16.8335 16.3561 16.2317 16.3561ZM8.75845 0.00893869C12.6425 -0.180176 13.3869 2.6942 13.3869 2.6942C13.3869 2.6942 15.1883 1.59237 18.0018 1.59237C20.8137 1.59237 22.6127 2.6942 22.6127 2.6942C22.6127 2.6942 23.3595 -0.180176 27.2436 0.00893869C29.5065 0.11792 31.3536 2.00826 31.3536 4.27443C31.3536 6.39635 29.9577 9.24508 27.6803 9.3172L27.391 9.32602C27.4559 9.71146 27.4808 10.7868 27.4808 11.0713C27.4808 16.3 23.2273 20.5567 18.0026 20.5567C12.7763 20.5567 8.52205 16.3 8.52205 11.0713C8.52205 10.7868 8.54529 9.71226 8.6134 9.32602L8.32012 9.3172C6.04514 9.24508 4.65082 6.39635 4.65082 4.27443C4.65082 2.00826 6.49629 0.11792 8.75845 0.00893869ZM12.8645 32.91V29.1542H16.1852V25.8342H19.937V29.1542H23.2609V32.91H19.937V36.2299H16.186V32.91L12.8653 32.9092L12.8645 32.91ZM0.782793 32.4516C0.614513 28.223 2.87026 24.7132 5.09556 21.8364L5.40167 21.4277C6.13168 20.4381 6.61168 19.7842 8.83217 19.9389C10.5326 20.0599 12.249 21.3284 12.249 23.524V23.5416C12.2426 24.8622 11.3796 26.0482 10.4669 27.2983C9.35704 28.8192 8.09975 30.5397 8.09975 32.8812C8.09975 33.5511 8.24639 34.0711 8.39063 34.5664C8.52926 35.056 8.66068 35.5159 8.66068 36.1081C8.66068 38.1251 6.95545 39.767 4.86157 39.767C2.34539 39.7678 0.974311 37.3045 0.78119 32.4516H0.782793ZM11.8484 50C9.06776 50 6.8056 47.741 6.8056 44.9612C6.8056 42.1814 9.06856 39.9225 11.8484 39.9225C13.1844 39.9237 14.4652 40.455 15.4099 41.3997C16.3546 42.3444 16.8859 43.6253 16.8871 44.9612C16.8861 46.2973 16.3549 47.5783 15.4102 48.523C14.4654 49.4677 13.1844 49.9989 11.8484 50ZM24.2386 50C21.4595 50 19.1958 47.741 19.1958 44.9612C19.1958 42.1814 21.4587 39.9225 24.2386 39.9225C27.0192 39.9225 29.2821 42.1814 29.2821 44.9612C29.2821 47.7418 27.0192 50 24.2386 50ZM31.1372 39.7678C29.0434 39.7678 27.3381 38.1267 27.3381 36.1089C27.3381 35.5167 27.4695 35.0568 27.6082 34.5672C27.7532 34.0711 27.899 33.5519 27.899 32.882C27.899 30.5413 26.6434 28.82 25.5327 27.2991C24.6192 26.0466 23.7578 24.8638 23.7506 23.5424V23.5248C23.7506 21.3292 25.4662 20.0607 27.1674 19.9397C29.3839 19.785 29.8671 20.4397 30.5963 21.4293L30.9048 21.838C33.1317 24.7148 35.3811 28.2238 35.2176 32.4524C35.0237 37.3053 33.6502 39.7686 31.1364 39.7686L31.1372 39.7678ZM21.8618 11.8013C22.1957 11.802 22.5162 11.6699 22.7527 11.4343C22.9892 11.1987 23.1225 10.8787 23.1231 10.5448C23.1238 10.211 22.9917 9.89051 22.7561 9.65397C22.5205 9.41743 22.2005 9.28419 21.8666 9.28355C21.7013 9.28323 21.5375 9.31548 21.3847 9.37846C21.2318 9.44143 21.0929 9.53389 20.9757 9.65057C20.7392 9.88621 20.606 10.2062 20.6053 10.54C20.6047 10.8739 20.7367 11.1944 20.9724 11.4309C21.208 11.6675 21.5279 11.8007 21.8618 11.8013Z" fill="#2C45B4"/>
</svg>
