<svg width="46" height="50" viewBox="0 0 46 50" fill="none" xmlns="http://www.w3.org/2000/svg">
<path d="M20.1646 0C30.3346 0 38.7295 7.59 39.9995 17.4125L45.6245 26.26C45.9946 26.8425 45.9195 27.71 45.062 28.08L40.1646 30.175V37.5C40.1646 40.2625 37.9271 42.5 35.1646 42.5H30.1671L30.1646 50H7.66455V40.765C7.66455 37.815 6.57455 35.0225 4.55455 32.5025C1.80705 29.0775 0.164551 24.73 0.164551 20C0.164551 8.955 9.11955 0 20.1646 0ZM20.1646 5C11.8796 5 5.16455 11.715 5.16455 20C5.16455 23.4625 6.33455 26.7325 8.45455 29.375C11.1896 32.785 12.6646 36.6675 12.6646 40.765V45H25.1646L25.1695 37.5H35.1646V26.88L39.0396 25.22L35.1821 19.1575L35.0396 18.0525C34.0796 10.6275 27.7246 5 20.1646 5ZM18.8396 14.4075L20.1646 15.7325L21.4895 14.4075C23.1996 12.6975 25.9696 12.6975 27.6771 14.4075C29.3871 16.115 29.3871 18.885 27.6771 20.5925L20.1646 28.1075L12.6521 20.5925C10.9421 18.885 10.9421 16.115 12.6521 14.4075C14.3596 12.6975 17.1296 12.6975 18.8396 14.4075Z" fill="#2C45B4"/>
</svg>
