<svg width="72" height="72" viewBox="0 0 72 72" fill="none" xmlns="http://www.w3.org/2000/svg">
<g clip-path="url(#clip0_90_300)">
<path d="M67.5 72H4.5C2.01825 72 0 69.9818 0 67.5V11.25C0 8.76825 2.01825 6.75 4.5 6.75H22.5V2.25C22.5 1.008 23.508 0 24.75 0C25.992 0 27 1.008 27 2.25V6.75H45V2.25C45 1.008 46.008 0 47.25 0C48.492 0 49.5 1.008 49.5 2.25V6.75H67.5C69.9818 6.75 72 8.76825 72 11.25V67.5C72 69.9818 69.9818 72 67.5 72ZM49.5 11.25V13.5C49.5 14.742 48.492 15.75 47.25 15.75C46.008 15.75 45 14.742 45 13.5V11.25H27V13.5C27 14.742 25.992 15.75 24.75 15.75C23.508 15.75 22.5 14.742 22.5 13.5V11.25H4.5V67.5H67.4932L67.5 11.25H49.5ZM56.25 54H51.75C50.508 54 49.5 52.992 49.5 51.75V47.25C49.5 46.008 50.508 45 51.75 45H56.25C57.492 45 58.5 46.008 58.5 47.25V51.75C58.5 52.992 57.492 54 56.25 54ZM56.25 36H51.75C50.508 36 49.5 34.992 49.5 33.75V29.25C49.5 28.008 50.508 27 51.75 27H56.25C57.492 27 58.5 28.008 58.5 29.25V33.75C58.5 34.992 57.492 36 56.25 36ZM38.25 54H33.75C32.508 54 31.5 52.992 31.5 51.75V47.25C31.5 46.008 32.508 45 33.75 45H38.25C39.492 45 40.5 46.008 40.5 47.25V51.75C40.5 52.992 39.492 54 38.25 54ZM38.25 36H33.75C32.508 36 31.5 34.992 31.5 33.75V29.25C31.5 28.008 32.508 27 33.75 27H38.25C39.492 27 40.5 28.008 40.5 29.25V33.75C40.5 34.992 39.492 36 38.25 36ZM20.25 54H15.75C14.508 54 13.5 52.992 13.5 51.75V47.25C13.5 46.008 14.508 45 15.75 45H20.25C21.492 45 22.5 46.008 22.5 47.25V51.75C22.5 52.992 21.492 54 20.25 54ZM20.25 36H15.75C14.508 36 13.5 34.992 13.5 33.75V29.25C13.5 28.008 14.508 27 15.75 27H20.25C21.492 27 22.5 28.008 22.5 29.25V33.75C22.5 34.992 21.492 36 20.25 36Z" fill="white"/>
</g>
<defs>
<clipPath id="clip0_90_300">
<rect width="72" height="72" fill="white"/>
</clipPath>
</defs>
</svg>
