<svg width="73" height="72" viewBox="0 0 73 72" fill="none" xmlns="http://www.w3.org/2000/svg">
<g clip-path="url(#clip0_90_312)">
<path d="M36.9722 23.625C29.5472 23.625 23.4722 29.7 23.4722 37.125C23.4722 44.55 29.5472 50.625 36.9722 50.625C44.3972 50.625 50.4722 44.55 50.4722 37.125C50.4722 29.7 44.3972 23.625 36.9722 23.625ZM36.9722 46.125C32.0222 46.125 27.9722 42.075 27.9722 37.125C27.9722 32.175 32.0222 28.125 36.9722 28.125C41.9222 28.125 45.9722 32.175 45.9722 37.125C45.9722 42.075 41.9222 46.125 36.9722 46.125Z" fill="white"/>
<path d="M36.972 56.7C28.5908 56.7 20.547 60.1875 14.8095 66.3187L13.2908 67.95L16.5533 71.0437L18.072 69.4125C23.022 64.125 29.7158 61.2 36.972 61.2C44.2283 61.2 50.922 64.125 55.872 69.4125L57.3908 71.0437L60.6533 67.95L59.1345 66.3187C53.397 60.2437 45.3533 56.7 36.972 56.7Z" fill="white"/>
<path d="M55.5347 26.9437V31.4437C60.8222 31.4437 65.7159 33.5812 69.3722 37.4625L72.6347 34.3687C68.2472 29.6437 62.0034 26.9437 55.5347 26.9437Z" fill="white"/>
<path d="M66.2783 11.25C66.2783 5.34375 61.4408 0.506248 55.5345 0.506248C49.6283 0.506248 44.7908 5.34375 44.7908 11.25C44.7908 17.1562 49.6283 21.9937 55.5345 21.9937C61.4408 21.9937 66.2783 17.1562 66.2783 11.25ZM49.2908 11.25C49.2908 7.81875 52.1033 5.00625 55.5345 5.00625C58.9658 5.00625 61.7783 7.81875 61.7783 11.25C61.7783 14.6812 58.9658 17.4937 55.5345 17.4937C52.1033 17.4937 49.2908 14.6812 49.2908 11.25Z" fill="white"/>
<path d="M18.4096 26.9437C11.9408 26.9437 5.69707 29.6437 1.30957 34.3687L4.57207 37.4625C8.17207 33.5812 13.1221 31.4437 18.4096 31.4437V26.9437Z" fill="white"/>
<path d="M29.1533 11.25C29.1533 5.34375 24.3158 0.506248 18.4095 0.506248C12.5033 0.506248 7.66577 5.34375 7.66577 11.25C7.66577 17.1562 12.5033 21.9937 18.4095 21.9937C24.3158 21.9937 29.1533 17.1562 29.1533 11.25ZM18.4095 17.4937C14.9783 17.4937 12.1658 14.6812 12.1658 11.25C12.1658 7.81875 14.9783 5.00625 18.4095 5.00625C21.8408 5.00625 24.6533 7.81875 24.6533 11.25C24.6533 14.6812 21.8408 17.4937 18.4095 17.4937Z" fill="white"/>
</g>
<defs>
<clipPath id="clip0_90_312">
<rect width="72" height="72" fill="white" transform="translate(0.972168)"/>
</clipPath>
</defs>
</svg>
