<svg width="67" height="72" viewBox="0 0 67 72" fill="none" xmlns="http://www.w3.org/2000/svg">
<path d="M58.0723 40.1495V51.2444C58.0723 56.7491 55.8855 62.0284 51.9931 65.9208C48.1007 69.8133 42.8214 72 37.3167 72C31.8119 72 26.5327 69.8133 22.6403 65.9208C18.7478 62.0284 16.5611 56.7491 16.5611 51.2444V48.8042C11.9492 48.0853 7.74593 45.7422 4.70929 42.1975C1.67265 38.6527 0.00249087 34.1396 0 29.4721V13.7949C0.000671871 12.2786 0.37935 10.7864 1.10178 9.45325C1.82421 8.12012 2.8676 6.98812 4.13756 6.15966C4.22782 4.70525 4.80085 3.32255 5.76584 2.23065C6.73084 1.13875 8.03261 0.400108 9.4649 0.131753C10.8972 -0.136601 12.3781 0.0806836 13.6729 0.749177C14.9677 1.41767 16.0024 2.49914 16.6131 3.82223C17.2237 5.14531 17.3754 6.63434 17.0441 8.05338C16.7127 9.47241 15.9173 10.7403 14.7838 11.6561C13.6504 12.572 12.2437 13.0834 10.7868 13.1093C9.32978 13.1352 7.90581 12.6742 6.74048 11.7993C6.26863 12.3573 6.00932 13.0642 6.00841 13.7949V29.4666C6.00841 33.0622 7.43672 36.5104 9.97913 39.0528C12.5215 41.5952 15.9698 43.0235 19.5653 43.0235C23.1608 43.0235 26.609 41.5952 29.1515 39.0528C31.6939 36.5104 33.1222 33.0622 33.1222 29.4666V13.7949C33.1223 13.1446 32.9174 12.5108 32.5365 11.9837C31.3275 12.7981 29.8814 13.186 28.4272 13.0859C26.9729 12.9859 25.5936 12.4037 24.5075 11.4314C23.4214 10.4591 22.6906 9.15236 22.4309 7.71799C22.1711 6.28362 22.3972 4.80359 23.0734 3.51219C23.7495 2.22079 24.8371 1.19181 26.1639 0.588135C27.4907 -0.0155387 28.981 -0.159414 30.3988 0.179288C31.8166 0.517989 33.0809 1.31991 33.9916 2.45812C34.9024 3.59632 35.4074 5.00576 35.4268 6.46333C36.5748 7.31032 37.508 8.41493 38.1513 9.6883C38.7946 10.9617 39.13 12.3683 39.1306 13.7949V29.4666C39.1281 34.1342 37.4579 38.6473 34.4213 42.1921C31.3846 45.7368 27.1814 48.0799 22.5695 48.7988V51.239C22.5695 55.1495 24.1229 58.8998 26.888 61.6649C29.6532 64.43 33.4035 65.9835 37.314 65.9835C41.2244 65.9835 44.9747 64.43 47.7399 61.6649C50.505 58.8998 52.0584 55.1495 52.0584 51.239V40.1495C49.3331 39.4205 46.9659 37.7255 45.3978 35.3804C43.8297 33.0352 43.1678 30.1999 43.5354 27.4029C43.903 24.6059 45.2751 22.0379 47.3959 20.1776C49.5167 18.3173 52.2415 17.2915 55.0626 17.2915C57.8837 17.2915 60.6086 18.3173 62.7294 20.1776C64.8502 22.0379 66.2223 24.6059 66.5899 27.4029C66.9575 30.1999 66.2956 33.0352 64.7275 35.3804C63.1594 37.7255 60.7921 39.4205 58.0668 40.1495H58.0723ZM60.6752 28.9244C60.6752 27.8143 60.346 26.7292 59.7293 25.8062C59.1126 24.8832 58.236 24.1639 57.2105 23.7391C56.1849 23.3142 55.0564 23.2031 53.9677 23.4197C52.8789 23.6362 51.8789 24.1708 51.094 24.9557C50.309 25.7406 49.7745 26.7407 49.5579 27.8294C49.3414 28.9181 49.4525 30.0466 49.8773 31.0722C50.3021 32.0978 51.0215 32.9743 51.9445 33.591C52.8674 34.2077 53.9526 34.5369 55.0626 34.5369C56.5512 34.5355 57.9785 33.9439 59.0316 32.8918C60.0847 31.8397 60.6777 30.413 60.6806 28.9244H60.6752Z" fill="white"/>
</svg>
